<?xml version="1.0"?>
<svg width="65" height="75" xmlns="http://www.w3.org/2000/svg" xmlns:svg="http://www.w3.org/2000/svg" version="1.1" xml:space="preserve">
 <g class="layer">
  <title>Layer 1</title>
  <g id="svg_1">
   <g id="svg_2">
    <g id="svg_3">
     <polygon fill="#3F3F3F" id="svg_4" points="32.112525939941406,1.1074334383010864 1.6285388469696045,18.710039138793945 32.112525939941406,21.18722915649414 "/>
     <polygon fill="#3F3F3F" id="svg_5" points="0.7833800315856934,20.924938201904297 0.7833800315856934,55.57642364501953 13.577327728271484,53.15752410888672 "/>
     <polygon fill="#3F3F3F" id="svg_6" points="31.879375457763672,21.886669158935547 0.9582422375679016,19.409481048583984 14.160195350646973,52.60380172729492 "/>
     <polygon fill="#3F3F3F" id="svg_7" points="50.23970413208008,53.07010269165039 32.491390228271484,22.323823928833008 14.743062973022461,53.07010269165039 "/>
     <polygon fill="#3F3F3F" id="svg_8" points="32.8702507019043,1.1074334383010864 32.8702507019043,21.18722915649414 63.35423278808594,18.710039138793945 "/>
     <polygon fill="#3F3F3F" id="svg_9" points="50.822574615478516,52.60380172729492 64.0245361328125,19.409481048583984 33.10340118408203,21.886669158935547 "/>
     <polygon fill="#3F3F3F" id="svg_10" points="34.239990234375,73.12074279785156 63.52909851074219,56.21757888793945 51.02657699584961,53.856971740722656 "/>
     <polygon fill="#3F3F3F" id="svg_11" points="64.19938659667969,55.57642364501953 64.19938659667969,20.924938201904297 51.40544128417969,53.15752410888672 "/>
     <polygon fill="#3F3F3F" id="svg_12" points="14.917923927307129,53.798683166503906 32.491390228271484,73.99504852294922 50.064849853515625,53.798683166503906 "/>
     <polygon fill="#3F3F3F" id="svg_13" points="1.453679084777832,56.21757888793945 30.742786407470703,73.12074279785156 13.956192970275879,53.856971740722656 "/>
    </g>
    <g id="svg_14" opacity="0.13">
     <polygon fill="#FFFFFF" id="svg_15" points="32.112525939941406,1.1074334383010864 1.6285388469696045,18.710039138793945 8.040083885192871,19.234622955322266 "/>
     <polygon fill="#FFFFFF" id="svg_16" points="0.7833800315856934,20.924938201904297 0.7833800315856934,55.57642364501953 2.648557662963867,55.22671127319336 "/>
     <polygon fill="#FFFFFF" id="svg_17" points="16.870532989501953,47.8825798034668 0.9582422375679016,19.409481048583984 14.160195350646973,52.60380172729492 "/>
     <polygon fill="#FFFFFF" id="svg_18" points="35.318294525146484,27.19076919555664 32.491390228271484,22.323823928833008 14.743062973022461,53.07010269165039 18.706565856933594,53.07010269165039 "/>
     <polygon fill="#FFFFFF" id="svg_19" points="32.8702507019043,1.1074334383010864 32.8702507019043,21.18722915649414 38.87378692626953,20.691789627075195 "/>
     <polygon fill="#FFFFFF" id="svg_20" points="35.87202453613281,26.695329666137695 64.0245361328125,19.409481048583984 33.10340118408203,21.886669158935547 "/>
     <polygon fill="#FFFFFF" id="svg_21" points="34.239990234375,73.12074279785156 54.873512268066406,54.5855598449707 51.02657699584961,53.856971740722656 "/>
     <polygon fill="#FFFFFF" id="svg_22" points="54.84437561035156,53.798683166503906 64.19938659667969,20.924938201904297 51.40544128417969,53.15752410888672 "/>
     <polygon fill="#FFFFFF" id="svg_23" points="14.917923927307129,53.798683166503906 32.491390228271484,73.99504852294922 18.96885871887207,53.856971740722656 "/>
     <polygon fill="#FFFFFF" id="svg_24" points="1.453679084777832,56.21757888793945 15.821370124816895,55.98443603515625 13.956192970275879,53.856971740722656 "/>
    </g>
    <path d="m64.9,19.82c0,-0.67 -0.38,-1.31 -0.96,-1.66l-30.57,-17.63c-0.53,-0.32 -1.2,-0.32 -1.72,0l-30.69,17.84c-0.55,0.32 -0.9,0.9 -0.9,1.54l-0.03,35.35c0,0.61 0.32,1.2 0.87,1.49l30.74,17.75c0.53,0.29 1.16,0.29 1.69,0l30.74,-17.75c0.53,-0.32 0.87,-0.87 0.87,-1.49l-0.06,-35.44l0,0l-0.01,0zm-13.37,33.05l12.18,-30.66c0.12,-0.26 0.53,-0.21 0.53,0.09l0,32.96c0,0.17 -0.15,0.29 -0.32,0.26l-12.18,-2.3c-0.17,-0.03 -0.26,-0.21 -0.21,-0.35l0,0zm-36.02,0.93l34.01,0c0.23,0 0.35,0.26 0.21,0.44l-16.99,19.52c-0.12,0.12 -0.29,0.12 -0.41,0l-16.99,-19.52c-0.17,-0.15 -0.06,-0.44 0.17,-0.44zm17.22,-31.1l17.28,29.96c0.12,0.17 -0.03,0.41 -0.23,0.41l-34.57,0c-0.21,0 -0.32,-0.23 -0.23,-0.41l17.28,-29.96c0.12,-0.17 0.35,-0.17 0.47,0l0,0zm0.78,-0.84l30.08,-2.42c0.21,-0.03 0.35,0.17 0.26,0.35l-12.82,32.29c-0.09,0.21 -0.38,0.23 -0.47,0.03l-17.22,-29.84c-0.12,-0.17 0,-0.38 0.17,-0.41l0,0zm-19.56,30.22l-12.82,-32.29c-0.06,-0.17 0.06,-0.38 0.26,-0.35l30.08,2.42c0.21,0.03 0.32,0.23 0.21,0.41l-17.25,29.84c-0.12,0.21 -0.38,0.17 -0.47,-0.03l0,0zm18.91,-31.18l0,-19.33c0,-0.21 0.23,-0.32 0.41,-0.23l29.37,16.96c0.23,0.12 0.15,0.47 -0.12,0.5l-29.37,2.36c-0.17,0 -0.29,-0.12 -0.29,-0.26l0,0l-0.01,0.01zm-0.76,-19.33l0,19.33c0,0.15 -0.15,0.29 -0.29,0.26l-29.35,-2.39c-0.26,-0.03 -0.35,-0.38 -0.12,-0.5l29.37,-16.96c0.17,-0.09 0.38,0.06 0.38,0.26l0,0l0,-0.01zm-18.86,51.64l-12.15,2.3c-0.17,0.03 -0.32,-0.09 -0.32,-0.26l0,-32.96c0,-0.29 0.41,-0.38 0.53,-0.09l12.18,30.66c0.03,0.15 -0.06,0.32 -0.23,0.35l0,0l-0.01,0zm-11.1,2.86l11.66,-2.21c0.09,-0.03 0.17,0.03 0.26,0.09l15.65,17.98c0.21,0.23 -0.09,0.55 -0.32,0.41l-27.31,-15.77c-0.23,-0.12 -0.17,-0.44 0.06,-0.5l0,0l0,-0.01zm49.02,-2.19l11.66,2.21c0.23,0.06 0.29,0.38 0.09,0.5l-27.31,15.77c-0.26,0.15 -0.53,-0.17 -0.32,-0.41l15.65,-17.98c0.06,-0.09 0.15,-0.12 0.23,-0.09l0,0l0,0.01z" fill="#F" id="svg_25"/>
   </g>
  </g>
  <rect fill="#FF0000" height="0" id="svg_26" stroke="#000000" width="10" x="280" y="340"/>
  <rect fill="#FF0000" height="0" id="svg_27" stroke="#000000" width="0" x="66.14" y="76.67"/>
  <rect fill="#FF0000" height="0" id="svg_28" stroke="#000000" width="0" x="68.52" y="73.56"/>
 </g>

</svg>